<svg width="32" height="32" viewBox="0 0 32 32" fill="none" xmlns="http://www.w3.org/2000/svg">
<path d="M10.6667 10.6667V6.93341C10.6667 5.43994 10.6667 4.6932 10.9573 4.12277C11.213 3.62101 11.6209 3.21306 12.1227 2.9574C12.6931 2.66675 13.4399 2.66675 14.9333 2.66675H25.0667C26.5601 2.66675 27.3069 2.66675 27.8773 2.9574C28.3791 3.21306 28.787 3.62101 29.0427 4.12277C29.3333 4.6932 29.3333 5.43994 29.3333 6.93341V17.0667C29.3333 18.5602 29.3333 19.307 29.0427 19.8774C28.787 20.3792 28.3791 20.7871 27.8773 21.0428C27.3069 21.3334 26.5601 21.3334 25.0667 21.3334H21.3333M6.93334 29.3334H17.0667C18.5601 29.3334 19.3069 29.3334 19.8773 29.0428C20.3791 28.7871 20.787 28.3792 21.0427 27.8774C21.3333 27.307 21.3333 26.5602 21.3333 25.0667V14.9334C21.3333 13.4399 21.3333 12.6932 21.0427 12.1228C20.787 11.621 20.3791 11.2131 19.8773 10.9574C19.3069 10.6667 18.5601 10.6667 17.0667 10.6667H6.93334C5.43986 10.6667 4.69313 10.6667 4.1227 10.9574C3.62093 11.2131 3.21298 11.621 2.95732 12.1228C2.66667 12.6932 2.66667 13.4399 2.66667 14.9334V25.0667C2.66667 26.5602 2.66667 27.307 2.95732 27.8774C3.21298 28.3792 3.62093 28.7871 4.1227 29.0428C4.69313 29.3334 5.43986 29.3334 6.93334 29.3334Z" stroke="white" stroke-width="2" stroke-linecap="round" stroke-linejoin="round"/>
</svg>
